<mxfile host="app.diagrams.net" modified="2023-05-16T18:51:15.244Z" agent="Mozilla/5.0 (Windows NT 10.0; Win64; x64) AppleWebKit/537.36 (KHTML, like Gecko) Chrome/113.0.0.0 Safari/537.36" etag="656otoj2pXMGi-UagQnG" version="21.3.0" type="github">
  <diagram name="Página-1" id="ldmFY92b0lFD5scrorkE">
    <mxGraphModel dx="1050" dy="619" grid="1" gridSize="10" guides="1" tooltips="1" connect="1" arrows="1" fold="1" page="1" pageScale="1" pageWidth="1169" pageHeight="827" math="0" shadow="0">
      <root>
        <mxCell id="0" />
        <mxCell id="1" parent="0" />
        <mxCell id="d-p8UJQvPen1ZmgGIBl5-1" value="ACUSE DE RECIBO" style="ellipse;whiteSpace=wrap;html=1;fontStyle=1;sketch=1;curveFitting=1;jiggle=2;labelBackgroundColor=none;" vertex="1" parent="1">
          <mxGeometry x="380" y="20" width="170" height="50" as="geometry" />
        </mxCell>
        <mxCell id="d-p8UJQvPen1ZmgGIBl5-2" value="FIN" style="ellipse;whiteSpace=wrap;html=1;sketch=1;curveFitting=1;jiggle=2;labelBackgroundColor=none;" vertex="1" parent="1">
          <mxGeometry x="405" y="710" width="120" height="80" as="geometry" />
        </mxCell>
        <mxCell id="d-p8UJQvPen1ZmgGIBl5-3" value="&lt;b&gt;PROPOSITO&lt;br&gt;Y REQUISITOS&lt;/b&gt;&lt;br&gt;-Autenticidad&lt;br&gt;-Integridad&lt;br&gt;-Rechazo" style="rounded=1;whiteSpace=wrap;html=1;sketch=1;curveFitting=1;jiggle=2;labelBackgroundColor=none;" vertex="1" parent="1">
          <mxGeometry x="60" y="100" width="100" height="90" as="geometry" />
        </mxCell>
        <mxCell id="d-p8UJQvPen1ZmgGIBl5-4" value="&lt;b&gt;EMISOR&lt;/b&gt;&lt;br&gt;-Nombre&lt;br&gt;-Email&lt;br&gt;-N identificacion" style="rounded=1;whiteSpace=wrap;html=1;sketch=1;curveFitting=1;jiggle=2;labelBackgroundColor=none;" vertex="1" parent="1">
          <mxGeometry x="230" y="150" width="100" height="90" as="geometry" />
        </mxCell>
        <mxCell id="d-p8UJQvPen1ZmgGIBl5-5" value="&lt;b&gt;RECEPTOR&lt;/b&gt;&lt;br&gt;-Nombre&lt;br&gt;-Email&lt;br&gt;-N Ident..." style="rounded=1;whiteSpace=wrap;html=1;sketch=1;curveFitting=1;jiggle=2;labelBackgroundColor=none;" vertex="1" parent="1">
          <mxGeometry x="340" y="150" width="100" height="90" as="geometry" />
        </mxCell>
        <mxCell id="d-p8UJQvPen1ZmgGIBl5-6" value="DISEÑO DEL FORMATO" style="rounded=1;whiteSpace=wrap;html=1;fontStyle=1;sketch=1;curveFitting=1;jiggle=2;labelBackgroundColor=none;" vertex="1" parent="1">
          <mxGeometry x="230" y="100" width="210" height="40" as="geometry" />
        </mxCell>
        <mxCell id="d-p8UJQvPen1ZmgGIBl5-7" value="&lt;b&gt;FECHA/HORA&lt;/b&gt;&lt;br&gt;&lt;div style=&quot;&quot;&gt;-Fecha&lt;/div&gt;&lt;div style=&quot;&quot;&gt;-Hora&lt;/div&gt;&lt;div style=&quot;&quot;&gt;-Zona horaria&lt;/div&gt;" style="rounded=1;whiteSpace=wrap;html=1;sketch=1;curveFitting=1;jiggle=2;labelBackgroundColor=none;" vertex="1" parent="1">
          <mxGeometry x="280" y="250" width="100" height="100" as="geometry" />
        </mxCell>
        <mxCell id="d-p8UJQvPen1ZmgGIBl5-8" value="&lt;div&gt;&lt;b&gt;IDENTIFICACION&lt;/b&gt;&lt;br&gt;&lt;b&gt;DEL MENSAJE&lt;/b&gt;&lt;br&gt;-ID del mensaje&lt;/div&gt;&lt;div&gt;-Número de referencia&lt;/div&gt;&lt;div&gt;-Código de transacción&lt;/div&gt;&lt;div&gt;-Identificador único&lt;/div&gt;" style="rounded=1;whiteSpace=wrap;html=1;sketch=1;curveFitting=1;jiggle=2;labelBackgroundColor=none;" vertex="1" parent="1">
          <mxGeometry x="250" y="360" width="145" height="130" as="geometry" />
        </mxCell>
        <mxCell id="d-p8UJQvPen1ZmgGIBl5-9" value="&lt;div&gt;&lt;b&gt;IDENTIFICACION&lt;/b&gt;&lt;br&gt;&lt;b&gt;DEL MENSAJE&lt;/b&gt;&lt;br&gt;-ID del mensaje&lt;/div&gt;&lt;div&gt;-Número de referencia&lt;/div&gt;&lt;div&gt;-Código de transacción&lt;/div&gt;&lt;div&gt;-Identificador único&lt;/div&gt;" style="rounded=1;whiteSpace=wrap;html=1;sketch=1;curveFitting=1;jiggle=2;labelBackgroundColor=none;" vertex="1" parent="1">
          <mxGeometry x="250" y="530" width="140" height="150" as="geometry" />
        </mxCell>
        <mxCell id="d-p8UJQvPen1ZmgGIBl5-10" value="&lt;div&gt;&lt;b&gt;ESTADOS DE ENTREGA&lt;/b&gt;&lt;/div&gt;&lt;div&gt;&lt;div&gt;Entregado&amp;nbsp;&lt;/div&gt;&lt;div&gt;Entrega fallida&lt;/div&gt;&lt;div&gt;&lt;span style=&quot;background-color: initial;&quot;&gt;En espera de confirmación&lt;/span&gt;&lt;br&gt;&lt;/div&gt;&lt;div&gt;En proceso de entrega&lt;/div&gt;&lt;div&gt;Entrega programada&lt;/div&gt;&lt;div&gt;&lt;span style=&quot;background-color: initial;&quot;&gt;No se pudo entregar&lt;/span&gt;&lt;br&gt;&lt;/div&gt;&lt;/div&gt;" style="rounded=1;whiteSpace=wrap;html=1;sketch=1;curveFitting=1;jiggle=2;labelBackgroundColor=none;" vertex="1" parent="1">
          <mxGeometry x="430" y="414" width="160" height="140" as="geometry" />
        </mxCell>
        <mxCell id="d-p8UJQvPen1ZmgGIBl5-11" value="&lt;b&gt;GENERAMOS EL ACUSE RECIBO&lt;/b&gt;&lt;br&gt;-Puerto Origen&lt;br&gt;-Puerto Destino&lt;br&gt;-Num secuencia&lt;br&gt;-Num AcuseRecibo&lt;br&gt;-Reservado/Ventana&lt;br&gt;-SumaControl/Puntero&lt;br&gt;-Datos" style="rounded=1;whiteSpace=wrap;html=1;sketch=1;curveFitting=1;jiggle=2;labelBackgroundColor=none;" vertex="1" parent="1">
          <mxGeometry x="610" y="100" width="130" height="180" as="geometry" />
        </mxCell>
      </root>
    </mxGraphModel>
  </diagram>
</mxfile>
